<svg version="1.1" id="Layer_1" xmlns="http://www.w3.org/2000/svg" xmlns:xlink="http://www.w3.org/1999/xlink" x="0px" y="0px"
	 width="10%" viewBox="0 0 256 256" enable-background="new 0 0 256 256" xml:space="preserve">
<path fill="#000000" opacity="1.000000" stroke="none" 
	d="
M193.000000,257.000000 
	C150.645767,257.000000 108.291542,257.000000 65.355019,256.633514 
	C51.851337,253.973358 41.702499,239.772568 41.931816,227.290512 
	C42.216370,211.801804 42.000000,196.303864 42.000000,180.809921 
	C42.000000,147.989410 42.015652,115.168884 41.962929,82.348457 
	C41.959599,80.276161 42.801533,78.100555 39.422592,76.867805 
	C28.090143,72.733337 22.370794,61.514130 25.072023,49.056915 
	C27.299545,38.784290 38.065166,31.509413 48.085960,31.912817 
	C57.994881,32.311718 67.932411,32.000000 78.203522,32.000000 
	C76.563133,17.300030 81.481857,6.721954 95.000000,1.000000 
	C117.020897,1.000000 139.041794,1.000000 161.643402,1.365025 
	C171.274826,4.412791 180.208740,9.429524 180.358612,32.000000 
	C190.460831,32.000000 200.571930,31.946716 210.682236,32.013935 
	C222.438873,32.092102 230.573120,39.082405 232.726059,49.946007 
	C235.028366,61.563377 231.110916,70.850868 220.016663,76.204903 
	C216.617905,77.845116 215.946365,79.439545 215.951111,82.678871 
	C216.021835,130.969696 216.153549,179.261826 215.782013,227.549896 
	C215.741165,232.859039 213.247162,238.408127 210.902786,243.379990 
	C207.401718,250.804962 200.081573,253.904205 193.000000,257.000000 
M54.000000,94.501831 
	C54.000000,136.495255 53.897873,178.489212 54.117542,220.481491 
	C54.148117,226.326141 54.596237,232.384018 58.822906,237.404099 
	C63.551792,243.020691 69.638100,244.960831 76.576721,244.980499 
	C96.240166,245.036224 115.904961,245.128983 135.567123,244.961166 
	C152.808746,244.814026 170.054962,244.538925 187.284393,243.913849 
	C195.841278,243.603394 202.995026,235.217606 202.996399,226.472992 
	C203.003937,178.480469 203.001999,130.487961 202.990295,82.495445 
	C202.989944,81.060165 202.845947,79.624908 202.774109,78.286560 
	C153.018875,78.286560 103.618942,78.286560 54.000000,78.286560 
	C54.000000,83.548676 54.000000,88.525993 54.000000,94.501831 
M39.942059,49.522678 
	C39.367191,52.595894 37.564304,56.141441 38.519924,58.625996 
	C39.791626,61.932343 42.607933,65.041992 47.263233,65.037010 
	C101.364616,64.979118 155.466095,65.012947 209.567520,64.982285 
	C215.777100,64.978767 220.033035,60.714775 220.000000,54.824715 
	C219.966568,48.862610 215.787842,45.002113 209.334961,45.001740 
	C156.065842,44.998665 102.796646,45.037056 49.527771,44.923328 
	C45.643684,44.915031 42.547554,45.821617 39.942059,49.522678 
M164.641144,18.115402 
	C161.291138,14.277216 156.675552,13.145185 152.000244,13.080117 
	C136.684235,12.866959 121.362305,12.889120 106.044876,13.042892 
	C97.263016,13.131052 92.961769,16.172937 91.302711,23.428768 
	C90.702240,26.054901 91.206192,28.933565 91.206192,31.786869 
	C116.533653,31.786869 141.598160,31.786869 167.772827,31.786869 
	C166.783768,27.192972 165.884033,23.013964 164.641144,18.115402 
z"/>
<path fill="#FFFFFF" opacity="1.000000" stroke="none" 
	d="
M193.468658,257.000000 
	C200.081573,253.904205 207.401718,250.804962 210.902786,243.379990 
	C213.247162,238.408127 215.741165,232.859039 215.782013,227.549896 
	C216.153549,179.261826 216.021835,130.969696 215.951111,82.678871 
	C215.946365,79.439545 216.617905,77.845116 220.016663,76.204903 
	C231.110916,70.850868 235.028366,61.563377 232.726059,49.946007 
	C230.573120,39.082405 222.438873,32.092102 210.682236,32.013935 
	C200.571930,31.946716 190.460831,32.000000 180.358612,32.000000 
	C180.208740,9.429524 171.274826,4.412791 162.112061,1.365025 
	C193.633255,1.000000 225.266525,1.000000 256.949890,1.000000 
	C256.949890,86.209862 256.949890,171.419769 256.949890,257.000000 
	C235.980560,257.000000 214.958939,257.000000 193.468658,257.000000 
z"/>
<path fill="#FFFFFF" opacity="1.000000" stroke="none" 
	d="
M94.531342,1.000000 
	C81.481857,6.721954 76.563133,17.300030 78.203522,32.000000 
	C67.932411,32.000000 57.994881,32.311718 48.085960,31.912817 
	C38.065166,31.509413 27.299545,38.784290 25.072023,49.056915 
	C22.370794,61.514130 28.090143,72.733337 39.422592,76.867805 
	C42.801533,78.100555 41.959599,80.276161 41.962929,82.348457 
	C42.015652,115.168884 42.000000,147.989410 42.000000,180.809921 
	C42.000000,196.303864 42.216370,211.801804 41.931816,227.290512 
	C41.702499,239.772568 51.851337,253.973358 64.886360,256.633514 
	C43.689224,257.000000 22.378450,257.000000 1.033838,257.000000 
	C1.033838,171.779480 1.033838,86.558929 1.033838,1.000000 
	C32.020073,1.000000 63.041378,1.000000 94.531342,1.000000 
z"/>
<path fill="#FFFFFF" opacity="1.000000" stroke="none" 
	d="
M54.000000,94.002563 
	C54.000000,88.525993 54.000000,83.548676 54.000000,78.286560 
	C103.618942,78.286560 153.018875,78.286560 202.774109,78.286560 
	C202.845947,79.624908 202.989944,81.060165 202.990295,82.495445 
	C203.001999,130.487961 203.003937,178.480469 202.996399,226.472992 
	C202.995026,235.217606 195.841278,243.603394 187.284393,243.913849 
	C170.054962,244.538925 152.808746,244.814026 135.567123,244.961166 
	C115.904961,245.128983 96.240166,245.036224 76.576721,244.980499 
	C69.638100,244.960831 63.551792,243.020691 58.822906,237.404099 
	C54.596237,232.384018 54.148117,226.326141 54.117542,220.481491 
	C53.897873,178.489212 54.000000,136.495255 54.000000,94.002563 
M122.000000,128.500000 
	C122.000000,155.318497 121.986542,182.137009 122.030800,208.955444 
	C122.033699,210.710327 122.595352,212.457901 122.694786,214.220291 
	C122.939194,218.551468 126.413849,219.875687 129.428375,219.720322 
	C133.021088,219.535202 135.075302,216.875092 135.063232,212.665009 
	C134.954895,174.852905 134.931503,137.040085 135.092850,99.228363 
	C135.111496,94.856987 132.198578,93.543190 129.412521,93.354744 
	C127.383949,93.217522 124.684532,95.173294 123.223778,96.962891 
	C122.072655,98.373154 122.078606,100.949112 122.048622,103.014259 
	C121.930153,111.174683 122.000000,119.337852 122.000000,128.500000 
M87.000000,108.534409 
	C87.000000,142.530289 86.999847,176.526184 87.000168,210.522064 
	C87.000221,215.878510 89.662819,219.744522 93.410843,219.833939 
	C97.147476,219.923080 99.999580,215.998627 99.999710,210.761902 
	C100.000343,184.765060 100.000008,158.768204 100.000000,132.771362 
	C100.000000,121.939346 100.026344,111.107231 99.985817,100.275368 
	C99.971436,96.433273 96.430519,92.347374 93.312370,93.136093 
	C89.782196,94.029037 86.645775,95.936470 86.971436,100.552376 
	C87.135223,102.873878 87.000008,105.216461 87.000000,108.534409 
M171.000000,159.500000 
	C170.999985,140.194809 171.015640,120.889587 170.988892,101.584427 
	C170.982269,96.805992 167.707169,92.791565 164.147568,93.019585 
	C159.860947,93.294159 158.007019,95.742897 158.004120,101.240921 
	C157.993652,121.045372 158.000000,140.849823 158.000000,160.654266 
	C158.000000,177.795929 158.037491,194.937759 157.966125,212.079132 
	C157.952972,215.241104 158.514313,217.813232 161.864532,218.977737 
	C166.992401,220.760132 170.970367,217.547058 170.985474,211.425690 
	C171.027359,194.450546 171.000000,177.475235 171.000000,159.500000 
z"/>
<path fill="#FFFFFF" opacity="1.000000" stroke="none" 
	d="
M39.985703,49.119473 
	C42.547554,45.821617 45.643684,44.915031 49.527771,44.923328 
	C102.796646,45.037056 156.065842,44.998665 209.334961,45.001740 
	C215.787842,45.002113 219.966568,48.862610 220.000000,54.824715 
	C220.033035,60.714775 215.777100,64.978767 209.567520,64.982285 
	C155.466095,65.012947 101.364616,64.979118 47.263233,65.037010 
	C42.607933,65.041992 39.791626,61.932343 38.519924,58.625996 
	C37.564304,56.141441 39.367191,52.595894 39.985703,49.119473 
z"/>
<path fill="#FFFFFF" opacity="1.000000" stroke="none" 
	d="
M164.812714,18.475178 
	C165.884033,23.013964 166.783768,27.192972 167.772827,31.786869 
	C141.598160,31.786869 116.533653,31.786869 91.206192,31.786869 
	C91.206192,28.933565 90.702240,26.054901 91.302711,23.428768 
	C92.961769,16.172937 97.263016,13.131052 106.044876,13.042892 
	C121.362305,12.889120 136.684235,12.866959 152.000244,13.080117 
	C156.675552,13.145185 161.291138,14.277216 164.812714,18.475178 
z"/>
<path fill="#000000" opacity="1.000000" stroke="none" 
	d="
M122.000000,128.000000 
	C122.000000,119.337852 121.930153,111.174683 122.048622,103.014259 
	C122.078606,100.949112 122.072655,98.373154 123.223778,96.962891 
	C124.684532,95.173294 127.383949,93.217522 129.412521,93.354744 
	C132.198578,93.543190 135.111496,94.856987 135.092850,99.228363 
	C134.931503,137.040085 134.954895,174.852905 135.063232,212.665009 
	C135.075302,216.875092 133.021088,219.535202 129.428375,219.720322 
	C126.413849,219.875687 122.939194,218.551468 122.694786,214.220291 
	C122.595352,212.457901 122.033699,210.710327 122.030800,208.955444 
	C121.986542,182.137009 122.000000,155.318497 122.000000,128.000000 
z"/>
<path fill="#000000" opacity="1.000000" stroke="none" 
	d="
M87.000000,108.041962 
	C87.000008,105.216461 87.135223,102.873878 86.971436,100.552376 
	C86.645775,95.936470 89.782196,94.029037 93.312370,93.136093 
	C96.430519,92.347374 99.971436,96.433273 99.985817,100.275368 
	C100.026344,111.107231 100.000000,121.939346 100.000000,132.771362 
	C100.000008,158.768204 100.000343,184.765060 99.999710,210.761902 
	C99.999580,215.998627 97.147476,219.923080 93.410843,219.833939 
	C89.662819,219.744522 87.000221,215.878510 87.000168,210.522064 
	C86.999847,176.526184 87.000000,142.530289 87.000000,108.041962 
z"/>
<path fill="#000000" opacity="1.000000" stroke="none" 
	d="
M171.000000,160.000000 
	C171.000000,177.475235 171.027359,194.450546 170.985474,211.425690 
	C170.970367,217.547058 166.992401,220.760132 161.864532,218.977737 
	C158.514313,217.813232 157.952972,215.241104 157.966125,212.079132 
	C158.037491,194.937759 158.000000,177.795929 158.000000,160.654266 
	C158.000000,140.849823 157.993652,121.045372 158.004120,101.240921 
	C158.007019,95.742897 159.860947,93.294159 164.147568,93.019585 
	C167.707169,92.791565 170.982269,96.805992 170.988892,101.584427 
	C171.015640,120.889587 170.999985,140.194809 171.000000,160.000000 
z"/>
</svg>

